<svg xmlns="http://www.w3.org/2000/svg" xmlns:xlink="http://www.w3.org/1999/xlink" width="40" zoomAndPan="magnify" viewBox="0 0 30 30.000001" height="40" preserveAspectRatio="xMidYMid meet" version="1.2"><defs><clipPath id="228f7b89ff"><path d="M 3.386719 2.03125 L 25.886719 2.03125 L 25.886719 24.53125 L 3.386719 24.53125 Z M 3.386719 2.03125 "/></clipPath><clipPath id="16477b9817"><path d="M 25.886719 13.28125 C 25.886719 19.496094 20.851562 24.53125 14.636719 24.53125 C 8.425781 24.53125 3.386719 19.496094 3.386719 13.28125 C 3.386719 7.070312 8.425781 2.03125 14.636719 2.03125 C 20.851562 2.03125 25.886719 7.070312 25.886719 13.28125 Z M 25.886719 13.28125 "/></clipPath><clipPath id="a81b2ed2ef"><path d="M 25.886719 13.28125 C 25.886719 19.496094 20.851562 24.53125 14.636719 24.53125 C 8.425781 24.53125 3.386719 19.496094 3.386719 13.28125 C 3.386719 7.070312 8.425781 2.03125 14.636719 2.03125 C 20.851562 2.03125 25.886719 7.070312 25.886719 13.28125 "/></clipPath><clipPath id="5f64f73dd3"><path d="M 14.636719 -9.21875 L -7.863281 13.28125 L 14.636719 35.78125 L 37.136719 13.28125 Z M 14.636719 -9.21875 "/></clipPath><linearGradient x1="-0.207238" gradientTransform="matrix(15.909904,15.909904,-15.909904,15.909904,6.679202,5.333997)" y1="0" x2="1.206976" gradientUnits="userSpaceOnUse" y2="0" id="e95f255653"><stop style="stop-color:#00afe5;stop-opacity:1;" offset="0"/><stop style="stop-color:#00afe5;stop-opacity:1;" offset="0.125"/><stop style="stop-color:#00afe5;stop-opacity:1;" offset="0.15625"/><stop style="stop-color:#00aee5;stop-opacity:1;" offset="0.171875"/><stop style="stop-color:#00aee4;stop-opacity:1;" offset="0.1875"/><stop style="stop-color:#00aee4;stop-opacity:1;" offset="0.195312"/><stop style="stop-color:#00ade4;stop-opacity:1;" offset="0.203125"/><stop style="stop-color:#00ade3;stop-opacity:1;" offset="0.21875"/><stop style="stop-color:#00ace3;stop-opacity:1;" offset="0.234375"/><stop style="stop-color:#00ace3;stop-opacity:1;" offset="0.25"/><stop style="stop-color:#00abe2;stop-opacity:1;" offset="0.265625"/><stop style="stop-color:#00abe2;stop-opacity:1;" offset="0.273437"/><stop style="stop-color:#00aae2;stop-opacity:1;" offset="0.28125"/><stop style="stop-color:#00aae1;stop-opacity:1;" offset="0.3125"/><stop style="stop-color:#00a9e1;stop-opacity:1;" offset="0.320312"/><stop style="stop-color:#00a8e1;stop-opacity:1;" offset="0.328125"/><stop style="stop-color:#00a8e0;stop-opacity:1;" offset="0.34375"/><stop style="stop-color:#00a8e0;stop-opacity:1;" offset="0.351562"/><stop style="stop-color:#00a7e0;stop-opacity:1;" offset="0.359375"/><stop style="stop-color:#00a7e0;stop-opacity:1;" offset="0.375"/><stop style="stop-color:#00a7e0;stop-opacity:1;" offset="0.390625"/><stop style="stop-color:#00a6df;stop-opacity:1;" offset="0.398437"/><stop style="stop-color:#00a5df;stop-opacity:1;" offset="0.40625"/><stop style="stop-color:#00a4df;stop-opacity:1;" offset="0.4375"/><stop style="stop-color:#00a4de;stop-opacity:1;" offset="0.453125"/><stop style="stop-color:#00a3de;stop-opacity:1;" offset="0.46875"/><stop style="stop-color:#00a3dd;stop-opacity:1;" offset="0.476562"/><stop style="stop-color:#00a2dd;stop-opacity:1;" offset="0.484375"/><stop style="stop-color:#00a2dd;stop-opacity:1;" offset="0.5"/><stop style="stop-color:#00a1dd;stop-opacity:1;" offset="0.515625"/><stop style="stop-color:#00a1dc;stop-opacity:1;" offset="0.53125"/><stop style="stop-color:#00a0dc;stop-opacity:1;" offset="0.546875"/><stop style="stop-color:#00a0dc;stop-opacity:1;" offset="0.5625"/><stop style="stop-color:#009fdb;stop-opacity:1;" offset="0.578125"/><stop style="stop-color:#009fdb;stop-opacity:1;" offset="0.59375"/><stop style="stop-color:#009eda;stop-opacity:1;" offset="0.609375"/><stop style="stop-color:#009eda;stop-opacity:1;" offset="0.625"/><stop style="stop-color:#009dda;stop-opacity:1;" offset="0.640625"/><stop style="stop-color:#009cd9;stop-opacity:1;" offset="0.65625"/><stop style="stop-color:#009cd9;stop-opacity:1;" offset="0.671875"/><stop style="stop-color:#009bd9;stop-opacity:1;" offset="0.6875"/><stop style="stop-color:#009bd8;stop-opacity:1;" offset="0.695312"/><stop style="stop-color:#009ad8;stop-opacity:1;" offset="0.703125"/><stop style="stop-color:#009ad7;stop-opacity:1;" offset="0.71875"/><stop style="stop-color:#0099d7;stop-opacity:1;" offset="0.734375"/><stop style="stop-color:#0098d7;stop-opacity:1;" offset="0.75"/><stop style="stop-color:#0098d6;stop-opacity:1;" offset="0.765625"/><stop style="stop-color:#0098d6;stop-opacity:1;" offset="0.773438"/><stop style="stop-color:#0097d6;stop-opacity:1;" offset="0.78125"/><stop style="stop-color:#0097d6;stop-opacity:1;" offset="0.789062"/><stop style="stop-color:#0096d6;stop-opacity:1;" offset="0.796875"/><stop style="stop-color:#0096d5;stop-opacity:1;" offset="0.8125"/><stop style="stop-color:#0096d5;stop-opacity:1;" offset="0.820312"/><stop style="stop-color:#0095d5;stop-opacity:1;" offset="0.828125"/><stop style="stop-color:#0095d4;stop-opacity:1;" offset="0.84375"/><stop style="stop-color:#0095d4;stop-opacity:1;" offset="0.859375"/><stop style="stop-color:#0094d4;stop-opacity:1;" offset="0.875"/><stop style="stop-color:#0094d4;stop-opacity:1;" offset="1"/></linearGradient></defs><g id="5c0141e65c"><g clip-rule="nonzero" clip-path="url(#228f7b89ff)"><g clip-rule="nonzero" clip-path="url(#16477b9817)"><g clip-rule="nonzero" clip-path="url(#a81b2ed2ef)"><g clip-rule="nonzero" clip-path="url(#5f64f73dd3)"><path style=" stroke:none;fill-rule:nonzero;fill:url(#e95f255653);" d="M 14.636719 -9.21875 L -7.863281 13.28125 L 14.636719 35.78125 L 37.136719 13.28125 Z M 14.636719 -9.21875 "/></g></g></g></g><path style=" stroke:none;fill-rule:nonzero;fill:#ffffff;fill-opacity:1;" d="M 19.488281 8.339844 C 19.445312 8.339844 19.402344 8.347656 19.355469 8.363281 L 8.035156 12.667969 C 7.714844 12.789062 7.722656 13.242188 8.046875 13.351562 L 10.671875 14.238281 L 12.253906 17.410156 C 12.253906 17.410156 12.253906 17.410156 12.257812 17.410156 L 12.261719 17.417969 C 12.289062 17.476562 12.351562 17.515625 12.414062 17.515625 C 12.449219 17.515625 12.488281 17.503906 12.523438 17.472656 L 14.003906 16.21875 L 12.351562 14.960938 L 12.480469 16.609375 L 11.289062 14.144531 L 17.617188 10.347656 L 12.351562 14.960938 L 16.449219 18.070312 C 16.585938 18.175781 16.742188 18.222656 16.898438 18.222656 C 17.222656 18.222656 17.535156 18.011719 17.625 17.65625 L 19.839844 8.792969 C 19.898438 8.554688 19.710938 8.339844 19.488281 8.339844 "/></g></svg>